<svg width="150" height="150" viewBox="0 0 150 150" fill="none" xmlns="http://www.w3.org/2000/svg">
<g clip-path="url(#clip0_326_6398)">
<path d="M75 12.5C40.5 12.5 12.5 40.5 12.5 75C12.5 109.5 40.5 137.5 75 137.5C109.5 137.5 137.5 109.5 137.5 75C137.5 40.5 109.5 12.5 75 12.5ZM75 31.25C85.375 31.25 93.75 39.625 93.75 50C93.75 60.375 85.375 68.75 75 68.75C64.625 68.75 56.25 60.375 56.25 50C56.25 39.625 64.625 31.25 75 31.25ZM75 120C59.375 120 45.5625 112 37.5 99.875C37.6875 87.4375 62.5 80.625 75 80.625C87.4375 80.625 112.312 87.4375 112.5 99.875C104.438 112 90.625 120 75 120Z" fill="#2B368A"/>
</g>
<defs>
<clipPath id="clip0_326_6398">
<rect width="150" height="150" fill="white"/>
</clipPath>
</defs>
</svg>