<svg width="32" height="32" viewBox="0 0 32 32" fill="none" xmlns="http://www.w3.org/2000/svg">
<g clip-path="url(#clip0_326_6409)">
<path fill-rule="evenodd" clip-rule="evenodd" d="M8 0C5.87827 0 3.84344 0.842855 2.34315 2.34315C0.842855 3.84344 0 5.87827 0 8L0 24C0 26.1217 0.842855 28.1566 2.34315 29.6569C3.84344 31.1571 5.87827 32 8 32H24C26.1217 32 28.1566 31.1571 29.6569 29.6569C31.1571 28.1566 32 26.1217 32 24V8C32 5.87827 31.1571 3.84344 29.6569 2.34315C28.1566 0.842855 26.1217 0 24 0L8 0ZM8 9.5C8 9.10218 8.15804 8.72064 8.43934 8.43934C8.72064 8.15804 9.10218 8 9.5 8H22.5C22.8978 8 23.2794 8.15804 23.5607 8.43934C23.842 8.72064 24 9.10218 24 9.5C24 9.89782 23.842 10.2794 23.5607 10.5607C23.2794 10.842 22.8978 11 22.5 11H9.5C9.10218 11 8.72064 10.842 8.43934 10.5607C8.15804 10.2794 8 9.89782 8 9.5ZM27.56 20.94C27.8409 21.2213 27.9987 21.6025 27.9987 22C27.9987 22.3975 27.8409 22.7787 27.56 23.06L23.06 27.56C22.7787 27.8409 22.3975 27.9987 22 27.9987C21.6025 27.9987 21.2213 27.8409 20.94 27.56L18.44 25.06C18.2926 24.9227 18.1744 24.7571 18.0924 24.5731C18.0105 24.3891 17.9664 24.1905 17.9628 23.989C17.9593 23.7876 17.9963 23.5876 18.0718 23.4008C18.1472 23.214 18.2595 23.0444 18.4019 22.9019C18.5444 22.7595 18.714 22.6472 18.9008 22.5718C19.0876 22.4963 19.2876 22.4593 19.489 22.4628C19.6905 22.4664 19.8891 22.5105 20.0731 22.5924C20.2571 22.6744 20.4227 22.7926 20.56 22.94L22 24.38L25.44 20.94C25.7213 20.6591 26.1025 20.5013 26.5 20.5013C26.8975 20.5013 27.2787 20.6591 27.56 20.94ZM8 16C8 15.6022 8.15804 15.2206 8.43934 14.9393C8.72064 14.658 9.10218 14.5 9.5 14.5H22.5C22.8978 14.5 23.2794 14.658 23.5607 14.9393C23.842 15.2206 24 15.6022 24 16C24 16.3978 23.842 16.7794 23.5607 17.0607C23.2794 17.342 22.8978 17.5 22.5 17.5H9.5C9.10218 17.5 8.72064 17.342 8.43934 17.0607C8.15804 16.7794 8 16.3978 8 16ZM8 22.5C8 22.1022 8.15804 21.7206 8.43934 21.4393C8.72064 21.158 9.10218 21 9.5 21H14.5C14.8978 21 15.2794 21.158 15.5607 21.4393C15.842 21.7206 16 22.1022 16 22.5C16 22.8978 15.842 23.2794 15.5607 23.5607C15.2794 23.842 14.8978 24 14.5 24H9.5C9.10218 24 8.72064 23.842 8.43934 23.5607C8.15804 23.2794 8 22.8978 8 22.5Z" fill="#FF0000"/>
</g>
<defs>
<clipPath id="clip0_326_6409">
<rect width="32" height="32" fill="white"/>
</clipPath>
</defs>
</svg>